<?xml version="1.0" encoding="UTF-8"?>
<svg version="1.1" xmlns="http://www.w3.org/2000/svg" width="288" height="288">
<path d="M0 0 C0.92087119 0.00092179 1.84174238 0.00184359 2.79051876 0.00279331 C3.84366268 0.00141865 4.8968066 0.00004398 5.98186398 -0.00137234 C7.72973454 0.00402058 7.72973454 0.00402058 9.51291561 0.00952244 C10.73225796 0.00937641 11.9516003 0.00923038 13.20789242 0.00907993 C16.56105596 0.0096589 19.91415859 0.01468815 23.26731133 0.02165389 C26.76803646 0.027888 30.26876233 0.02849127 33.76949215 0.0296793 C40.4028774 0.03279245 47.03624625 0.04100561 53.66962427 0.05102879 C61.21968292 0.06219044 68.76974233 0.06770051 76.31980717 0.07272422 C91.85480791 0.08318824 107.38979227 0.10078736 122.92478085 0.12304783 C121.5829677 4.28703454 120.08435021 7.87960537 117.87009335 11.65820408 C117.25392147 12.71716892 116.6377496 13.77613377 116.00290585 14.86718845 C115.3583746 15.96224705 114.71384335 17.05730564 114.04978085 18.18554783 C107.26917004 29.79193377 100.59482633 41.45046824 93.92478085 53.12304783 C72.14478085 53.12304783 50.36478085 53.12304783 27.92478085 53.12304783 C26.93478085 56.09304783 26.93478085 56.09304783 25.92478085 59.12304783 C24.99502208 60.91974158 24.01196195 62.68964047 22.9833746 64.43164158 C22.40329647 65.41922459 21.82321835 66.40680759 21.2255621 67.42431736 C20.61067928 68.45927341 19.99579647 69.49422947 19.36228085 70.56054783 C18.7383746 71.62644138 18.11446835 72.69233494 17.47165585 73.7905283 C14.69693707 78.51684695 11.89754361 83.21499969 8.9286871 87.82226658 C8.49950985 88.4978159 8.0703326 89.17336521 7.62814999 89.86938572 C6.84970028 91.08467696 6.05424817 92.28931391 5.23898983 93.48022556 C4.03662127 95.26626256 4.03662127 95.26626256 2.92478085 98.12304783 C3.98921331 102.24877962 5.6693935 105.7086378 7.83103085 109.36132908 C8.41110897 110.34810642 8.9911871 111.33488377 9.58884335 112.35156345 C10.19470272 113.3692783 10.8005621 114.38699314 11.42478085 115.43554783 C11.99970272 116.41072361 12.5746246 117.38589939 13.16696835 118.39062595 C14.36116082 120.41527761 15.5843956 122.4230732 16.83570004 124.4129343 C18.39963813 127.01908279 19.49025016 129.56502489 20.49652767 132.42996311 C22.45865275 137.43089736 24.61983349 141.76278297 28.92478085 145.12304783 C37.27415733 148.11701252 46.63770945 147.28995256 55.38178587 147.04867387 C58.88639553 146.97003309 62.39052854 146.98853305 65.89581966 146.99632359 C72.52002369 146.99649119 79.1401344 146.910476 85.76317823 146.79275411 C93.30846754 146.66289006 100.85322545 146.63020641 108.39947724 146.60530674 C123.90981771 146.55197081 139.41636126 146.37782804 154.92478085 146.12304783 C153.83153567 148.33050436 152.73598795 150.53676876 151.63913631 152.74243259 C151.33400616 153.35914074 151.028876 153.97584888 150.71449947 154.61124516 C147.74378167 160.57685388 144.4463625 166.32765266 141.04978085 172.06054783 C140.4462579 173.08672215 139.84273495 174.11289646 139.22092342 175.17016697 C137.46116839 178.15783267 135.69445408 181.14124854 133.92478085 184.12304783 C133.42994198 184.95836033 132.93510311 185.79367283 132.42526913 186.65429783 C131.15754658 188.79168977 129.88650692 190.92702781 128.61228085 193.06054783 C128.2457037 193.67470554 127.87912655 194.28886326 127.501441 194.92163181 C125.04787441 198.99995426 125.04787441 198.99995426 123.92478085 200.12304783 C122.31788885 200.21904919 120.70676315 200.24492672 119.0970068 200.24330235 C118.05227703 200.24467701 117.00754726 200.24605167 115.93115902 200.24746799 C114.77526272 200.24387272 113.61936642 200.24027744 112.42844296 200.23657322 C111.21885418 200.23671925 110.0092654 200.23686527 108.76302242 200.23701572 C105.43671734 200.23643676 102.11047366 200.23140756 98.78417945 200.22444177 C95.31148155 200.21820761 91.83878291 200.21760438 88.36608028 200.21641636 C81.78581892 200.21330323 75.20557409 200.20509008 68.62532002 200.19506687 C61.13571973 200.18390517 53.64611867 200.17839514 46.15651214 200.17337143 C30.74592545 200.16290745 15.33535528 200.14530836 -0.07521915 200.12304783 C-0.52030323 199.34357792 -0.96538731 198.56410801 -1.42395878 197.7610178 C-3.11434998 194.80094184 -4.80497124 191.84099751 -6.49573612 188.88113499 C-7.22016971 187.61283441 -7.94451796 186.34448508 -8.66877079 185.07608128 C-14.86479873 174.22502874 -21.09589793 163.39465813 -27.34865665 152.57617283 C-29.88095298 148.19432674 -32.40639533 143.80862988 -34.92678165 139.41992283 C-35.88088932 137.76065769 -35.88088932 137.76065769 -36.85427189 136.06787205 C-38.11328694 133.87776245 -39.37064799 131.68670108 -40.62624454 129.49462986 C-43.57808416 124.36198573 -46.57676767 119.27409661 -49.7197504 114.25586033 C-50.57016911 112.88760105 -50.57016911 112.88760105 -51.43776798 111.49170017 C-52.49699129 109.79776411 -53.57020304 108.11246097 -54.65993595 106.43798923 C-55.36050114 105.31529636 -55.36050114 105.31529636 -56.07521915 104.16992283 C-56.48771915 103.5289365 -56.90021915 102.88795017 -57.32521915 102.22754002 C-58.68224199 98.41974808 -57.58324656 95.20493033 -55.91457462 91.65136814 C-55.42875919 90.84280369 -54.94294376 90.03423923 -54.44240665 89.20117283 C-53.89133244 88.27175877 -53.34025822 87.3423447 -52.77248478 86.38476658 C-52.17113712 85.39089939 -51.56978947 84.3970322 -50.95021915 83.37304783 C-49.66556218 81.21206654 -48.38173601 79.05059119 -47.09865665 76.88867283 C-46.43317814 75.77298923 -45.76769962 74.65730564 -45.08205509 73.50781345 C-41.86147145 68.0759191 -38.72020021 62.59894211 -35.57521915 57.12304783 C-30.11261644 47.63682373 -24.61611277 38.17102507 -19.09206486 28.72045994 C-16.31334385 23.96531626 -13.54186479 19.2063303 -10.7900629 14.43554783 C-10.27798283 13.54794773 -9.76590275 12.66034763 -9.23830509 11.74585056 C-8.27793063 10.079496 -7.31887626 8.41237969 -6.36135197 6.74438572 C-2.5617728 0.15189749 -2.5617728 0.15189749 0 0 Z " fill="#FCFCFC" transform="translate(74.07521915435791,43.876952171325684)"/>
<path d="M0 0 C5.91093877 6.15877687 7.42533854 11.47746079 7.34375 19.921875 C6.66221178 26.02474001 3.38656179 29.4813847 -0.625 33.875 C-5.99198453 37.25421248 -11.3624531 38.41768344 -17.6875 37.69140625 C-23.88564053 36.17021627 -28.26795557 33.19517549 -32 28 C-34.96036486 21.98986329 -35.07711964 15.09714498 -33.3828125 8.65234375 C-31.04359686 3.28042819 -27.05268252 -0.14799756 -22 -3 C-14.38773387 -5.45267514 -6.62751807 -4.4888068 0 0 Z " fill="#FCFCFC" transform="translate(265,152)"/>
<path d="M0 0 C4.89320022 2.31314919 7.4416903 5.26238944 10 10 C11.57682292 14.73046875 10.75483896 18.31860182 9.09375 22.87890625 C7.06530249 26.81264553 3.93876578 29.03061711 0 31 C-5.22840334 31.52113171 -9.64036754 31.64273534 -14.4375 29.375 C-19.10863357 25.04565669 -21.23861982 21.92123974 -21.5 15.5 C-21.23861982 9.07876026 -19.10863357 5.95434331 -14.4375 1.625 C-9.56643525 -0.67768515 -5.29813119 -0.77379561 0 0 Z " fill="#FCFCFC" transform="translate(214,106)"/>
<path d="M0 0 C2.9375 2.0625 2.9375 2.0625 5 5 C5.63127485 8.99807408 5.67917484 11.00735985 3.375 14.375 C0.43721938 16.38506043 -1.4396496 16.92733979 -5 17 C-7.86332091 15.76356597 -9.49288133 14.66847461 -11.375 12.1875 C-12.26089715 9.08685996 -11.89945179 7.08383471 -11 4 C-7.97573286 -0.42008274 -5.17880165 -0.81770552 0 0 Z " fill="#FCFCFC" transform="translate(233,60)"/>
</svg>
